<?xml version="1.0" encoding="UTF-8"?>
<svg class="animated" version="1.1" viewBox="0 0 500 500" xmlns="http://www.w3.org/2000/svg">
<g class="animable" style="transform-origin:239.61px 239.988px">
<path class="animable" d="M376.08,144.07c-26-23.09-64.73-32.8-98.88-29.64-17.18,1.59-31,8.71-46.66,15.06-22,8.9-36.54,5-59,2.6C106.33,125,76.23,188,75.1,235c-1.38,57.18,38.65,109.36,95,123.89,37.93,9.78,74.47,10.19,107.68-2.12,25.92-9.62,32.39-30.74,40.62-55.06,6.3-18.58,11.91-39.55,25.84-54.15,12.73-13.36,25.84-2.11,40.5-10.23C422,216.67,398,163.53,376.08,144.07Z" fill="#18182f" style="transform-origin:239.61px 239.988px"/>
<path class="animable" d="M376.08,144.07c-26-23.09-64.73-32.8-98.88-29.64-17.18,1.59-31,8.71-46.66,15.06-22,8.9-36.54,5-59,2.6C106.33,125,76.23,188,75.1,235c-1.38,57.18,38.65,109.36,95,123.89,37.93,9.78,74.47,10.19,107.68-2.12,25.92-9.62,32.39-30.74,40.62-55.06,6.3-18.58,11.91-39.55,25.84-54.15,12.73-13.36,25.84-2.11,40.5-10.23C422,216.67,398,163.53,376.08,144.07Z" fill="#fff" opacity=".9" style="transform-origin:239.61px 239.988px"/>
</g>
<g class="animable" style="transform-origin:250px 416.24px">
<ellipse class="animable" cx="250" cy="416.24" rx="193.89" ry="11.32" fill="#f5f5f5" style="transform-origin:250px 416.24px"/>
</g>
<g class="animable" style="transform-origin:209.895px 245.805px">
<polygon class="animable" points="316.5 99.3 85.98 99.3 101.15 413.24 331.67 413.24" fill="#18182f" style="transform-origin:208.825px 256.27px"/>
<polygon class="animable" points="316.5 99.3 85.98 99.3 101.15 413.24 331.67 413.24" opacity=".2" style="transform-origin:208.825px 256.27px"/>
<polygon class="animable" points="318.63 99.3 88.11 99.3 103.29 413.24 333.81 413.24" fill="#18182f" style="transform-origin:210.96px 256.27px"/>
<polygon class="animable" points="306.46 109.86 98.65 109.86 113.17 399.05 293.87 398.81 323.9 372.19" opacity=".2" style="transform-origin:211.275px 254.455px"/>
<path class="animable" d="m308.05 109.85a2354.7 2354.7 0 0 0 20.95 258.86q-24.7 17-49.15 34h-155.42a2360.7 2360.7 0 0 1-25.78-292.86z" fill="#fff" style="transform-origin:213.825px 256.28px"/>
<path class="animable" d="m329 368.71q-24.7 17-49.15 34 5.34-22.5 11.13-45z" fill="#ebebeb" style="transform-origin:304.425px 380.21px"/>
<path class="animable" d="M155,136.31q.59,15.88,1.38,31.78H124.61q-.8-15.9-1.38-31.78H155m3.24-3.35H119.76q.67,19.23,1.67,38.48h38.49q-1-19.24-1.67-38.48Z" fill="#18182f" style="transform-origin:139.84px 152.2px"/>
<path class="animable" d="m284.82 148.24h-108.82c-0.1-2.39-0.19-4.79-0.28-7.18h108.81c0.09 2.39 0.19 4.79 0.29 7.18z" fill="#e0e0e0" style="transform-origin:230.27px 144.65px"/>
<path class="animable" d="m261.83 163.34h-85.16c-0.11-2.4-0.23-4.79-0.33-7.18h85.15q0.17 3.59 0.34 7.18z" fill="#e0e0e0" style="transform-origin:219.085px 159.75px"/>
<path class="animable" d="M158.12,198.55q1,15.9,2.23,31.8H128.57q-1.23-15.9-2.23-31.8h31.78m3.14-3.35H122.78q1.18,19.25,2.69,38.5H164q-1.5-19.24-2.7-38.5Z" fill="#18182f" style="transform-origin:143.39px 214.45px"/>
<path class="animable" d="m219.4 210.49h-40c-0.16-2.4-0.33-4.79-0.48-7.19h40c0.15 2.4 0.31 4.79 0.48 7.19z" fill="#e0e0e0" style="transform-origin:199.16px 206.895px"/>
<path class="animable" d="m257.27 210.49h-29.41c-0.16-2.4-0.33-4.79-0.48-7.19h29.41c0.15 2.4 0.31 4.79 0.48 7.19z" fill="#e0e0e0" style="transform-origin:242.325px 206.895px"/>
<path class="animable" d="m275.73 225.6h-95.23c-0.18-2.4-0.35-4.79-0.53-7.19h95.23c0.18 2.4 0.35 4.79 0.53 7.19z" fill="#e0e0e0" style="transform-origin:227.85px 222.005px"/>
<path class="animable" d="m162.89 260.82q1.43 15.9 3.08 31.8h-31.78q-1.65-15.9-3.08-31.8h31.78m3.06-3.35h-38.49q1.7 19.26 3.72 38.51h38.49q-2-19.26-3.72-38.51z" fill="#18182f" style="transform-origin:148.565px 276.725px"/>
<path class="animable" d="M294.1,280.69H185.27l.72,7.18H294.82Z" fill="#e0e0e0" style="transform-origin:240.045px 284.28px"/>
<path class="animable" d="m269 265.58h-85.16c0.22 2.39 0.44 4.79 0.67 7.18h85.15c-0.22-2.39-0.45-4.76-0.66-7.18z" fill="#e0e0e0" style="transform-origin:226.75px 269.17px"/>
<path class="animable" d="M169.32,323.09q1.86,15.9,3.93,31.79H141.47q-2.07-15.88-3.93-31.79h31.78m3-3.35H133.8Q136,339,138.55,358.23H177q-2.53-19.23-4.75-38.49Z" fill="#18182f" style="transform-origin:155.4px 338.985px"/>
<path class="animable" d="m300.09 335h-108.83c-0.29-2.4-0.58-4.79-0.86-7.19h108.82c0.29 2.43 0.57 4.82 0.87 7.19z" fill="#e0e0e0" style="transform-origin:245.245px 331.405px"/>
<path class="animable" d="m242.69 350.13h-49.54c-0.31-2.39-0.61-4.79-0.91-7.18h49.54c0.3 2.39 0.6 4.79 0.91 7.18z" fill="#e0e0e0" style="transform-origin:217.465px 346.54px"/>
<path class="animable" d="m272.27 350.13h-21.39c-0.31-2.39-0.61-4.79-0.91-7.18h21.39c0.3 2.39 0.64 4.79 0.91 7.18z" fill="#e0e0e0" style="transform-origin:261.12px 346.54px"/>
<path class="animable" d="m141 163.55-1.41-2.24c-3.08-4.9-9.36-9.27-11.53-10.55l1.62-2.87a45.5 45.5 0 0 1 11.26 9.67c4.84-6.59 12-13.4 21.8-20.72l2.07 2.7c-10.46 7.83-17.78 15-22.4 21.9z" fill="#18182f" style="transform-origin:146.435px 150.195px"/>
<path class="animable" d="m144.8 225.81-1.47-2.24c-3.2-4.9-9.6-9.28-11.8-10.56l1.53-2.87a47 47 0 0 1 11.53 9.68c4.66-6.6 11.63-13.41 21.24-20.74 0.71 0.9 1.43 1.8 2.14 2.71-10.25 7.84-17.38 15-21.81 21.91-0.46 0.7-0.91 1.41-1.36 2.11z" fill="#18182f" style="transform-origin:149.75px 212.445px"/>
<path class="animable" d="M150.32,288.24,148.79,286c-3.34-4.9-9.86-9.28-12.09-10.55.48-1,1-1.92,1.46-2.87a49.09,49.09,0,0,1,11.78,9.67c4.49-6.6,11.28-13.4,20.68-20.74l2.22,2.71c-10,7.84-17,15-21.23,21.91Z" fill="#18182f" style="transform-origin:154.77px 274.875px"/>
<path class="animable" d="m251.13 385.46c-5.9 0-9.3-2.18-12.3-4.1s-5.58-3.58-10.56-3.58-7.2 1.74-9.55 3.58-5.23 4.1-11.13 4.1-9.3-2.18-12.29-4.1-5.57-3.58-10.56-3.58-7.2 1.74-9.55 3.58-5.23 4.1-11.12 4.1-9.3-2.18-12.3-4.1-5.57-3.58-10.56-3.58c-0.13-1-0.27-1.92-0.4-2.88 5.9 0 9.29 2.18 12.29 4.1s5.57 3.58 10.55 3.58 7.2-1.74 9.55-3.58 5.24-4.1 11.14-4.1 9.28 2.18 12.28 4.1 5.58 3.58 10.56 3.58 7.2-1.74 9.55-3.58 5.24-4.1 11.14-4.1 9.29 2.18 12.29 4.1 5.57 3.58 10.56 3.58c0.13 0.96 0.28 1.92 0.41 2.88z" fill="#ebebeb" style="transform-origin:195.97px 380.18px"/>
<path class="animable" d="m259.59 107.07c-3.38-9-11.19-14.91-19.59-14.91h-17.12a6.51 6.51 0 0 1-5.95-4 16 16 0 0 0-14.57-9.79 14.17 14.17 0 0 0-13.62 9.79 5.78 5.78 0 0 1-5.57 4h-17.11c-8.41 0-15.65 5.94-18.15 14.91l-1 3.57h114z" fill="#263238" style="transform-origin:203.91px 94.5046px"/>
<path class="animable" d="m260.2 114.16h-112.2a3.74 3.74 0 0 1-3.69-3.52 3.33 3.33 0 0 1 3.35-3.51h112.2a3.74 3.74 0 0 1 3.69 3.51 3.33 3.33 0 0 1-3.35 3.52z" fill="#18182f" style="transform-origin:203.93px 110.645px"/>
<path class="animable" d="m260.2 114.16h-112.2a3.74 3.74 0 0 1-3.69-3.52 3.33 3.33 0 0 1 3.35-3.51h112.2a3.74 3.74 0 0 1 3.69 3.51 3.33 3.33 0 0 1-3.35 3.52z" opacity=".2" style="transform-origin:203.93px 110.645px"/>
</g>
<g class="animable animator-active" style="transform-origin:341.25px 268.02px">
<polygon class="animable" points="360.92 410.23 353.59 410.23 352.86 393.26 360.19 393.26" fill="#ffc3bd" style="transform-origin:356.89px 401.745px"/>
<polygon class="animable" points="404.91 410.23 397.58 410.23 393.9 393.26 401.22 393.26" fill="#ffc3bd" style="transform-origin:399.405px 401.745px"/>
<path class="animable" d="M397.06,409.38h8.23a.63.63,0,0,1,.62.5l1.45,6.52a1.08,1.08,0,0,1-1.07,1.3c-2.87-.05-4.27-.22-7.89-.22-2.23,0-6.82.23-9.89.23s-3.48-3-2.22-3.31c5.65-1.24,7.77-2.94,9.58-4.57A1.8,1.8,0,0,1,397.06,409.38Z" fill="#263238" style="transform-origin:396.503px 413.545px"/>
<path class="animable" d="M353.64,409.38h8a.63.63,0,0,1,.62.5l1.45,6.52a1.06,1.06,0,0,1-1,1.3c-2.89-.05-7.06-.22-10.69-.22-4.24,0-7.9.23-12.88.23-3,0-3.84-3-2.58-3.31,5.73-1.26,10.41-1.39,15.36-4.45A3.44,3.44,0,0,1,353.64,409.38Z" fill="#263238" style="transform-origin:349.866px 413.545px"/>
<path class="animable" d="m368 142.92c-1 5.36-1.58 12 2.17 15.58 0 0-2.15 5.44-12.11 5.44-9.1 0-4.54-5.44-4.54-5.44 6-1.43 5.66-8.82 4.62-13z" fill="#ffc3bd" style="transform-origin:361.274px 153.43px"/>
<path class="animable" d="M350.66,159.25c.2-1.33,2.54-2.88,5.2-3.46s12.88-1.87,16-.58-.54,5.11-.54,5.11Z" fill="#18182f" style="transform-origin:361.89px 157.488px"/>
<path class="animable" d="M350.66,159.25c.2-1.33,2.54-2.88,5.2-3.46s12.88-1.87,16-.58-.54,5.11-.54,5.11Z" fill="#fff" opacity=".4" style="transform-origin:361.89px 157.488px"/>
<polygon class="animable" points="352.86 393.27 353.24 402.01 360.57 402.01 360.19 393.27" opacity=".2" style="transform-origin:356.715px 397.64px"/>
<polygon class="animable" points="401.23 393.27 393.9 393.27 395.8 402.01 403.13 402.01" opacity=".2" style="transform-origin:398.515px 397.64px"/>
<path class="animable" d="m385.35 165.1-8.83 5.9s12.68 22.55 11.62 26.16c-1.45 4.92-3.47 15.67-6.22 21.13 0.36 1.18 2.19 3.87 3.21 4.33 7-5.32 14.07-22 13.81-26.67-0.61-10.59-13.59-30.85-13.59-30.85z" fill="#ffc3bd" style="transform-origin:387.733px 193.86px"/>
<path class="animable" d="M381.92,218.31l-7-.54,3.67,7.71s6.11.27,7.13-4.4Z" fill="#b55b52" style="transform-origin:380.32px 221.626px"/>
<polygon class="animable" points="416.52 255.91 415.93 257.02 411.97 264.51 271.39 190.18 275.93 181.58" fill="#18182f" style="transform-origin:343.955px 223.045px"/>
<polygon class="animable" points="425.61 238.74 422.71 244.22 421.07 247.32 280.48 172.99 285.02 164.39" fill="#18182f" style="transform-origin:353.045px 205.855px"/>
<rect class="animable" x="343.64" y="134.94" width="9.72" height="159.03" fill="#18182f" style="transform-origin:348.5px 214.455px;transform:rotate(-62.09deg)"/>
<rect class="animable" x="343.64" y="134.94" width="9.72" height="159.03" opacity=".2" style="transform-origin:348.5px 214.455px;transform:rotate(-62.09deg)"/>
<polygon class="animable" points="265.33 165.53 261.24 173.27 271.39 190.18 285.02 164.4" fill="#18182f" style="transform-origin:273.13px 177.29px"/>
<polygon class="animable" points="265.33 165.53 261.24 173.27 271.39 190.18 285.02 164.4" fill="#fff" opacity=".8" style="transform-origin:273.13px 177.29px"/>
<polygon class="animable" points="256.89 166.02 261.24 173.27 265.33 165.53" fill="#18182f" style="transform-origin:261.11px 169.4px"/>
<polygon class="animable" points="369.29 221.28 372.95 228.1 378.62 225.48 374.95 217.77" fill="#b55b52" style="transform-origin:373.955px 222.935px"/>
<path class="animable" d="m383.25 160.16c6.93 1 14.87 25 14.87 25l-14.56 8.22s-6.41-11.38-9.56-19.88c-3.32-8.89 1.82-14.42 9.25-13.34z" fill="#263238" style="transform-origin:385.545px 176.703px"/>
<path class="animable" d="m379.22 168.39c-3.15-2.88-1.22 9.45 0.28 17.34 0.77 1.54 1.5 2.94 2.12 4.11 3.51-6.2 1.94-17.48-2.4-21.45z" opacity=".2" style="transform-origin:380.537px 178.901px"/>
<path class="animable" d="M342.21,160.54s-8.65,22.12-.44,63.32H381c.27-6-3.51-35.36,2.29-63.7a102,102,0,0,0-13.12-1.66,144.4,144.4,0,0,0-16.65,0A73,73,0,0,0,342.21,160.54Z" fill="#263238" style="transform-origin:360.761px 191.06px"/>
<path class="animable" d="m348.24 170.82-9.88-3.91s-11.38 23.23-15 24.4c-4.87 1.6-14.87 6-20.93 6.86-0.76 1-1.94 4-1.75 5.1 8.35 2.73 26.12-0.89 29.8-3.75 8.44-6.52 17.76-28.7 17.76-28.7z" fill="#ffc3bd" style="transform-origin:324.45px 185.574px"/>
<path class="animable" d="m349.35 168.18c-1.63-3.76-4.75-5.33-8-4.78-1.26 4.61-3.39 14.74-3 30l2.33 1.12s11.46-19.91 8.67-26.34z" opacity=".2" style="transform-origin:344.045px 178.907px"/>
<path class="animable" d="m350.91 165.55c2.46 6.56-10 25.86-10 25.86l-14.66-8a89.48 89.48 0 0 1 8.47-17.15c5.15-7.69 13.48-7.9 16.19-0.71z" fill="#263238" style="transform-origin:338.741px 175.865px"/>
<path class="animable" d="m302.79 198.15-8.72 1.85 4.42 8.07a24.13 24.13 0 0 0 6.55-4.78z" fill="#ffc3bd" style="transform-origin:299.555px 203.11px"/>
<polygon class="animable" points="289.95 201.83 293.43 206.65 298.49 208.11 294.07 200.04" fill="#ffc3bd" style="transform-origin:294.22px 204.075px"/>
<path class="animable" d="M351.38,135.21c0,.59-.37,1-.76,1s-.67-.52-.63-1.11.37-1,.76-1S351.42,134.62,351.38,135.21Z" fill="#263238" style="transform-origin:350.685px 135.155px"/>
<path class="animable" d="M351.9,135.26a21.08,21.08,0,0,1-3.11,4.88,3.39,3.39,0,0,0,2.79.69Z" fill="#ed847e" style="transform-origin:350.345px 138.077px"/>
<path class="animable" d="M350.63,133.17a.47.47,0,0,1-.15-.06.34.34,0,0,1-.1-.48,3.48,3.48,0,0,1,2.71-1.64.37.37,0,0,1,.35.35.35.35,0,0,1-.35.35h0A2.74,2.74,0,0,0,351,133,.35.35,0,0,1,350.63,133.17Z" fill="#263238" style="transform-origin:351.88px 132.083px"/>
<path class="animable" d="M371.26,134.7c-.86,7.22-1,11.48-4.87,15-5.83,5.28-14.58,1.45-15.9-5.89-1.18-6.6.43-17.29,7.69-19.77A9.92,9.92,0,0,1,371.26,134.7Z" fill="#ffc3bd" style="transform-origin:360.741px 137.824px"/>
<path class="animable" d="m356.71 136.11c-2.53 0.5-6.57-5.12-3.27-9.89-1.67-0.83-7.12 2.45-9.17-0.61s3.64-4.69 2.55-7.28c3.86 0.79-2.5 5.61 1.17 5.14s7.9-7.25 12-4.47c7.25 4.87 17.13-3.25 13.1 6.92 4.94-1 8.32 4.84 3.61 8.89-9.39 8.05-3.61 9.11-9.56 9.52-2.98 0.22-9.91-3.33-10.43-8.22z" fill="#263238" style="transform-origin:361.388px 131.335px"/>
<path class="animable" d="M360.46,138a6,6,0,0,1-3.49,3.09c-2,.69-3.15-1.1-2.68-3.07.42-1.78,2-4.28,4.07-4.1A2.73,2.73,0,0,1,360.46,138Z" fill="#ffc3bd" style="transform-origin:357.505px 137.576px"/>
<path class="animable" d="m355.67 223.86s8.32 56 12.88 77c5 23 23.83 99.49 23.83 99.49h13.42s-12.41-74.66-15.27-97.41c-3.09-24.68-9.57-79.05-9.57-79.05z" fill="#18182f" style="transform-origin:380.735px 312.105px"/>
<path class="animable" d="m355.67 223.86s8.32 56 12.88 77c5 23 23.83 99.49 23.83 99.49h13.42s-12.41-74.66-15.27-97.41c-3.09-24.68-9.57-79.05-9.57-79.05z" fill="#fff" opacity=".2" style="transform-origin:380.735px 312.105px"/>
<path class="animable" d="M365.55,243.44c-.62-.88-1.18-1.18-1.7-1l-.11,0a1.46,1.46,0,0,0-.33.2,2,2,0,0,0-.29.29l-.16.2-.21.33a6.43,6.43,0,0,0-.45.91c-.08.19-.16.39-.23.59s-.18.51-.26.79-.23.76-.34,1.17c0,.11-.05.21-.08.32s-.11.46-.16.69-.09.4-.13.6c-.09.39-.17.8-.25,1.22s-.17.91-.25,1.38c0,.16-.05.32-.08.49-.1.6-.19,1.21-.28,1.84h0c2.22,13.94,4.86,29.92,7,41.07.1-.36.21-.74.3-1.15a52,52,0,0,0,1-5.64C370.43,273.37,369.56,249.17,365.55,243.44Z" opacity=".2" style="transform-origin:364.868px 268.46px"/>
<path class="animable" d="M341.77,223.86s-1,54.78-.21,77.13c.83,23.24,8.95,99.33,8.95,99.33h12.41s.45-74.74,1-97.56c.6-24.88,3.6-78.9,3.6-78.9Z" fill="#18182f" style="transform-origin:354.388px 312.09px"/>
<path class="animable" d="M341.77,223.86s-1,54.78-.21,77.13c.83,23.24,8.95,99.33,8.95,99.33h12.41s.45-74.74,1-97.56c.6-24.88,3.6-78.9,3.6-78.9Z" fill="#fff" opacity=".2" style="transform-origin:354.388px 312.09px"/>
<path class="animable" d="M363.74,396.52c.05,0,0,4.05,0,4.05H349.43l-.6-4.55Z" fill="#263238" style="transform-origin:356.296px 398.295px"/>
<path class="animable" d="M405.8,396.82c.06,0,.67,3.75.67,3.75H391.72l-1.3-4.3Z" fill="#263238" style="transform-origin:398.445px 398.42px"/>
<path class="animable" d="M394.64,410.66a2.2,2.2,0,0,1-1.41-.37,1,1,0,0,1-.36-.92.57.57,0,0,1,.29-.49c.81-.41,3.18,1,3.45,1.2a.18.18,0,0,1,.07.18.17.17,0,0,1-.13.14A8.82,8.82,0,0,1,394.64,410.66Zm-1.09-1.51a.53.53,0,0,0-.23,0,.22.22,0,0,0-.11.2.71.71,0,0,0,.24.63,3.5,3.5,0,0,0,2.6.14A7,7,0,0,0,393.55,409.15Z" fill="#18182f" style="transform-origin:394.772px 409.736px"/>
<path class="animable" d="M396.51,410.41a.13.13,0,0,1-.08,0c-.76-.41-2.22-2-2.07-2.83a.56.56,0,0,1,.55-.45.91.91,0,0,1,.74.22c.85.69,1,2.81,1,2.9a.21.21,0,0,1-.08.16A.17.17,0,0,1,396.51,410.41Zm-1.48-3H395c-.23,0-.25.13-.26.18-.09.48.84,1.69,1.6,2.26a4.14,4.14,0,0,0-.87-2.29A.57.57,0,0,0,395,407.43Z" fill="#18182f" style="transform-origin:395.5px 408.768px"/>
<path class="animable" d="M350.59,410.66a2.75,2.75,0,0,1-1.78-.45,1,1,0,0,1-.32-.84.52.52,0,0,1,.28-.46c.89-.5,3.84,1,4.17,1.17a.16.16,0,0,1,.09.18.16.16,0,0,1-.14.14A11.86,11.86,0,0,1,350.59,410.66Zm-1.33-1.51a.73.73,0,0,0-.32.06.22.22,0,0,0-.11.19.61.61,0,0,0,.21.55c.45.4,1.66.47,3.28.2A9.64,9.64,0,0,0,349.26,409.15Z" fill="#18182f" style="transform-origin:350.759px 409.74px"/>
<path class="animable" d="M352.86,410.41l-.07,0c-.89-.4-2.64-2-2.5-2.81,0-.19.17-.44.64-.48a1.25,1.25,0,0,1,1,.29c.93.77,1.12,2.74,1.13,2.83a.15.15,0,0,1-.07.15A.18.18,0,0,1,352.86,410.41Zm-1.79-3H351c-.31,0-.33.15-.34.2-.08.49,1.11,1.74,2,2.28a4,4,0,0,0-1-2.26A1,1,0,0,0,351.07,407.43Z" fill="#18182f" style="transform-origin:351.672px 408.76px"/>
</g>
</svg>
